<svg id="svg" version="1.1" width="400" height="398.6710963455149" xmlns="http://www.w3.org/2000/svg" xmlns:xlink="http://www.w3.org/1999/xlink" style="display: block;"><g id="svgg"><path id="path0" d="M218.245 3.465 C 218.629 3.566,219.257 3.566,219.641 3.465 C 220.025 3.365,219.711 3.283,218.943 3.283 C 218.175 3.283,217.861 3.365,218.245 3.465 M329.811 51.172 C 329.811 51.240,330.394 51.824,331.107 52.468 L 332.403 53.639 331.231 52.343 C 330.140 51.135,329.811 50.864,329.811 51.172 M339.382 60.419 C 342.557 63.599,345.244 66.201,345.354 66.201 C 345.463 66.201,342.955 63.599,339.781 60.419 C 336.606 57.238,333.919 54.636,333.809 54.636 C 333.699 54.636,336.207 57.238,339.382 60.419 M58.818 60.718 L 53.240 66.401 58.923 60.823 C 62.049 57.755,64.606 55.198,64.606 55.140 C 64.606 54.854,64.000 55.439,58.818 60.718 M51.221 68.694 L 50.050 69.990 51.346 68.819 C 52.554 67.727,52.825 67.398,52.517 67.398 C 52.449 67.398,51.865 67.981,51.221 68.694 M346.560 67.921 C 346.560 67.990,347.144 68.573,347.856 69.218 L 349.153 70.389 347.981 69.093 C 346.889 67.885,346.560 67.613,346.560 67.921 M202.991 112.611 C 198.816 113.827,196.966 115.348,192.991 120.829 C 183.054 134.531,146.387 174.033,131.104 187.503 C 126.153 191.866,125.991 191.804,118.473 182.646 C 112.387 175.232,113.092 179.618,112.861 147.757 C 112.639 117.036,112.811 118.823,109.807 115.974 C 105.811 112.181,97.519 112.106,93.403 115.825 C 89.862 119.024,89.957 118.377,89.731 140.977 C 89.488 165.250,90.097 163.280,82.636 163.921 C 54.252 166.358,38.403 189.834,48.690 214.203 C 54.069 226.943,66.021 235.717,81.755 238.477 C 90.287 239.973,89.487 237.773,89.731 260.419 C 89.924 278.340,89.959 279.026,90.789 280.820 C 94.499 288.847,107.120 289.588,111.556 282.040 L 112.662 280.160 112.861 257.428 L 113.061 234.696 113.980 233.217 C 115.076 231.454,118.956 228.913,120.552 228.913 C 122.382 228.913,123.046 229.501,126.085 233.806 C 150.874 268.920,177.998 288.253,202.792 288.480 C 209.613 288.542,210.761 288.189,213.464 285.197 C 217.477 280.756,217.331 282.681,217.351 233.699 C 217.360 210.301,217.526 190.940,217.725 190.081 C 218.518 186.665,219.903 187.370,223.212 192.869 C 234.703 211.968,244.101 219.143,257.627 219.143 C 270.221 219.143,278.449 212.667,290.400 193.349 C 298.195 180.750,297.831 178.638,297.875 236.718 L 297.906 279.418 299.003 281.581 C 302.587 288.647,314.032 289.310,318.765 282.725 C 321.128 279.438,321.009 283.751,321.050 199.355 L 321.087 122.016 320.124 119.913 C 317.871 114.992,314.960 113.188,309.273 113.188 C 302.270 113.188,299.802 115.262,296.904 123.590 C 287.340 151.066,266.335 190.945,259.589 194.433 C 251.333 198.702,238.758 176.955,220.753 127.274 C 216.084 114.389,211.076 110.255,202.991 112.611 M192.673 162.175 C 193.365 163.009,193.711 256.660,193.031 259.185 C 192.073 262.743,189.237 262.068,180.259 256.146 C 167.655 247.831,155.130 234.853,144.803 219.408 C 140.036 212.277,140.075 211.496,145.436 206.770 C 151.136 201.745,174.245 178.586,181.911 170.217 C 186.066 165.681,189.682 161.882,189.947 161.774 C 190.955 161.365,192.146 161.540,192.673 162.175 M1.726 188.036 C 1.728 189.571,1.800 190.151,1.886 189.323 C 1.973 188.496,1.971 187.239,1.883 186.531 C 1.795 185.824,1.724 186.500,1.726 188.036 M87.553 188.057 C 92.089 189.238,97.631 193.926,103.401 201.462 C 107.804 207.211,107.032 209.323,99.194 212.971 C 84.460 219.828,67.524 210.852,69.562 197.264 C 70.519 190.879,79.919 186.069,87.553 188.057 M396.951 190.828 C 396.950 192.802,397.017 193.659,397.101 192.734 C 397.185 191.808,397.186 190.193,397.103 189.145 C 397.021 188.096,396.952 188.853,396.951 190.828 M396.949 210.568 C 396.949 212.433,397.018 213.195,397.102 212.263 C 397.186 211.331,397.186 209.806,397.102 208.873 C 397.018 207.941,396.949 208.704,396.949 210.568 M1.726 213.161 C 1.728 214.696,1.800 215.275,1.886 214.448 C 1.973 213.620,1.971 212.364,1.883 211.656 C 1.795 210.948,1.724 211.625,1.726 213.161 M58.824 340.578 C 61.888 343.649,64.486 346.162,64.595 346.162 C 64.705 346.162,62.287 343.649,59.222 340.578 C 56.157 337.507,53.560 334.995,53.450 334.995 C 53.341 334.995,55.759 337.507,58.824 340.578 M339.377 340.877 L 333.599 346.760 339.482 340.982 C 344.946 335.615,345.544 334.995,345.259 334.995 C 345.201 334.995,342.554 337.642,339.377 340.877 M330.782 349.053 L 329.611 350.349 330.907 349.178 C 331.620 348.533,332.203 347.950,332.203 347.882 C 332.203 347.573,331.874 347.845,330.782 349.053 M183.954 398.292 C 184.560 398.384,185.457 398.381,185.948 398.287 C 186.438 398.192,185.942 398.117,184.845 398.120 C 183.749 398.123,183.347 398.200,183.954 398.292 M213.066 398.292 C 213.673 398.384,214.570 398.381,215.060 398.287 C 215.551 398.192,215.055 398.117,213.958 398.120 C 212.861 398.123,212.460 398.200,213.066 398.292 " stroke="none" fill="#ffffff" fill-rule="evenodd"></path><path id="path1" d="M190.053 2.289 C 189.187 2.378,188.690 2.580,188.947 2.738 C 189.203 2.897,187.129 2.974,184.338 2.910 C 180.978 2.833,179.532 2.919,180.060 3.165 C 180.610 3.422,180.053 3.481,178.265 3.357 C 176.439 3.229,175.909 3.289,176.471 3.557 C 177.045 3.831,176.710 3.880,175.274 3.731 C 174.008 3.599,173.468 3.657,173.796 3.890 C 174.126 4.124,173.479 4.207,172.001 4.120 C 170.260 4.017,169.887 4.082,170.489 4.383 C 171.098 4.689,170.899 4.730,169.639 4.558 C 167.560 4.274,164.795 4.738,165.564 5.242 C 165.893 5.458,165.404 5.502,164.307 5.357 C 163.038 5.190,162.682 5.238,163.090 5.524 C 163.502 5.811,163.158 5.869,161.894 5.724 C 160.560 5.570,160.268 5.626,160.718 5.950 C 161.170 6.275,160.985 6.316,159.958 6.119 C 159.083 5.950,158.688 6.001,158.849 6.261 C 159.003 6.511,158.700 6.588,158.054 6.465 C 157.342 6.329,157.099 6.409,157.289 6.716 C 157.484 7.031,157.173 7.098,156.251 6.939 C 155.207 6.759,155.059 6.807,155.533 7.171 C 156.019 7.543,155.957 7.580,155.201 7.367 C 153.972 7.019,145.480 9.113,145.828 9.678 C 145.980 9.922,145.892 9.974,145.615 9.803 C 145.017 9.433,142.697 9.925,142.968 10.364 C 143.080 10.545,142.784 10.592,142.311 10.468 C 141.726 10.315,141.541 10.389,141.733 10.700 C 141.913 10.992,141.802 11.075,141.424 10.931 C 140.714 10.658,135.159 12.383,135.415 12.796 C 135.514 12.956,135.207 12.985,134.734 12.861 C 134.093 12.693,133.956 12.770,134.197 13.159 C 134.413 13.509,134.365 13.587,134.051 13.392 C 133.471 13.034,129.527 14.297,129.808 14.752 C 129.920 14.932,129.624 14.979,129.151 14.855 C 128.509 14.687,128.372 14.764,128.613 15.153 C 128.829 15.501,128.781 15.581,128.473 15.390 C 127.821 14.987,126.353 15.520,126.676 16.042 C 126.841 16.309,126.755 16.358,126.452 16.171 C 125.782 15.757,122.355 17.098,122.691 17.643 C 122.852 17.903,122.765 17.952,122.470 17.770 C 121.828 17.373,119.579 18.321,119.907 18.852 C 120.062 19.102,119.967 19.145,119.668 18.960 C 119.029 18.565,115.994 19.923,116.324 20.456 C 116.461 20.679,116.383 20.743,116.149 20.599 C 115.592 20.254,114.399 20.720,114.679 21.174 C 114.799 21.368,114.638 21.427,114.322 21.306 C 113.496 20.989,104.783 25.434,105.130 25.995 C 105.297 26.265,105.228 26.334,104.959 26.167 C 104.380 25.809,101.994 27.033,102.301 27.530 C 102.434 27.745,102.239 27.794,101.850 27.645 C 101.349 27.452,101.253 27.523,101.492 27.910 C 101.707 28.258,101.664 28.343,101.366 28.159 C 100.745 27.775,99.215 28.649,99.552 29.194 C 99.714 29.456,99.642 29.522,99.375 29.357 C 98.813 29.010,96.406 30.216,96.703 30.697 C 96.824 30.892,96.712 31.181,96.455 31.340 C 96.147 31.531,96.096 31.455,96.305 31.117 C 96.517 30.773,96.439 30.671,96.067 30.806 C 95.763 30.916,95.563 31.222,95.623 31.485 C 95.683 31.748,95.552 31.852,95.332 31.716 C 94.749 31.356,93.249 32.264,93.570 32.784 C 93.736 33.052,93.659 33.111,93.374 32.935 C 92.820 32.592,90.031 34.213,90.333 34.702 C 90.448 34.888,90.331 35.169,90.074 35.328 C 89.766 35.519,89.715 35.443,89.924 35.105 C 90.135 34.763,90.056 34.654,89.687 34.777 C 89.382 34.879,89.133 35.156,89.133 35.394 C 89.133 35.631,88.969 35.975,88.770 36.158 C 88.555 36.354,88.537 36.265,88.725 35.940 C 88.943 35.564,88.869 35.448,88.490 35.575 C 88.185 35.676,87.936 35.954,87.936 36.191 C 87.936 36.429,87.773 36.773,87.573 36.956 C 87.359 37.152,87.341 37.063,87.529 36.738 C 87.747 36.362,87.673 36.246,87.294 36.372 C 86.989 36.474,86.740 36.751,86.740 36.989 C 86.740 37.227,86.576 37.571,86.377 37.753 C 86.166 37.946,86.134 37.877,86.301 37.587 C 86.458 37.313,86.408 37.089,86.189 37.089 C 85.789 37.089,85.162 37.852,85.151 38.352 C 85.147 38.498,84.981 38.767,84.782 38.950 C 84.571 39.143,84.539 39.073,84.705 38.784 C 85.124 38.055,84.628 38.172,83.307 39.113 C 82.667 39.569,82.239 40.095,82.355 40.282 C 82.471 40.470,82.355 40.753,82.098 40.911 C 81.807 41.092,81.738 41.027,81.916 40.740 C 82.073 40.486,82.021 40.279,81.802 40.279 C 81.402 40.279,80.775 41.042,80.764 41.542 C 80.760 41.688,80.594 41.957,80.395 42.140 C 80.184 42.333,80.152 42.264,80.319 41.974 C 80.476 41.700,80.426 41.476,80.207 41.476 C 79.807 41.476,79.180 42.239,79.169 42.738 C 79.165 42.885,78.999 43.154,78.799 43.337 C 78.589 43.530,78.557 43.460,78.723 43.170 C 78.881 42.896,78.848 42.672,78.650 42.672 C 78.212 42.672,76.716 44.274,76.903 44.542 C 76.976 44.647,76.902 44.852,76.739 44.998 C 76.576 45.145,76.572 45.040,76.729 44.766 C 76.887 44.492,76.837 44.267,76.617 44.267 C 76.218 44.267,75.591 45.030,75.579 45.530 C 75.576 45.676,75.410 45.945,75.210 46.128 C 74.999 46.321,74.967 46.252,75.134 45.962 C 75.292 45.688,75.259 45.464,75.060 45.464 C 74.569 45.464,73.327 46.873,73.588 47.134 C 73.703 47.250,73.490 47.594,73.114 47.899 C 72.661 48.267,72.530 48.286,72.729 47.956 C 72.893 47.682,72.866 47.458,72.668 47.458 C 72.176 47.458,70.934 48.867,71.195 49.128 C 71.311 49.244,71.087 49.588,70.698 49.893 C 70.054 50.398,70.040 50.385,70.537 49.751 C 70.838 49.367,70.917 49.053,70.712 49.053 C 70.210 49.053,68.130 51.248,68.388 51.505 C 68.500 51.617,68.100 52.143,67.499 52.674 C 66.512 53.546,66.480 53.552,67.163 52.742 C 67.580 52.248,67.719 51.844,67.474 51.844 C 66.872 51.844,51.047 67.642,51.047 68.243 C 51.047 68.528,51.406 68.416,51.944 67.964 C 52.442 67.546,52.322 67.783,51.674 68.497 C 51.032 69.204,50.417 69.693,50.308 69.583 C 50.051 69.327,48.255 71.007,48.255 71.504 C 48.255 71.712,48.569 71.639,48.953 71.342 C 49.518 70.904,49.506 70.971,48.889 71.694 C 48.470 72.185,48.036 72.496,47.924 72.384 C 47.661 72.121,46.261 73.387,46.261 73.889 C 46.261 74.102,46.575 74.029,46.959 73.728 C 47.594 73.230,47.607 73.245,47.102 73.888 C 46.796 74.277,46.452 74.501,46.336 74.386 C 46.075 74.124,44.666 75.366,44.666 75.858 C 44.666 76.056,44.873 76.091,45.126 75.934 C 45.421 75.752,45.478 75.825,45.286 76.136 C 45.120 76.404,44.883 76.521,44.758 76.397 C 44.485 76.123,43.071 77.342,43.071 77.852 C 43.071 78.050,43.278 78.085,43.531 77.928 C 43.825 77.746,43.883 77.819,43.691 78.130 C 43.525 78.398,43.288 78.515,43.163 78.391 C 42.889 78.117,41.476 79.336,41.476 79.846 C 41.476 80.044,41.683 80.079,41.936 79.922 C 42.230 79.740,42.288 79.813,42.095 80.124 C 41.930 80.392,41.694 80.511,41.572 80.389 C 41.293 80.110,40.279 80.925,40.279 81.428 C 40.279 81.634,40.486 81.674,40.740 81.517 C 41.034 81.335,41.091 81.408,40.899 81.720 C 40.734 81.987,40.498 82.106,40.376 81.984 C 40.097 81.705,39.083 82.520,39.083 83.024 C 39.083 83.229,39.290 83.269,39.543 83.112 C 39.831 82.935,39.895 83.003,39.715 83.295 C 39.556 83.552,39.273 83.667,39.086 83.551 C 38.898 83.435,38.372 83.864,37.917 84.504 C 36.976 85.825,36.859 86.321,37.587 85.902 C 37.877 85.735,37.946 85.767,37.753 85.978 C 37.571 86.178,37.227 86.341,36.989 86.341 C 36.751 86.341,36.474 86.590,36.372 86.895 C 36.249 87.264,36.358 87.343,36.700 87.132 C 37.038 86.923,37.114 86.974,36.923 87.283 C 36.765 87.540,36.481 87.655,36.294 87.539 C 36.107 87.423,35.581 87.852,35.125 88.492 C 34.184 89.813,34.067 90.309,34.796 89.890 C 35.085 89.723,35.155 89.755,34.962 89.966 C 34.779 90.166,34.435 90.329,34.197 90.329 C 33.960 90.329,33.682 90.578,33.581 90.883 C 33.458 91.252,33.567 91.332,33.908 91.121 C 34.247 90.911,34.322 90.962,34.132 91.271 C 33.973 91.528,33.685 91.640,33.492 91.521 C 33.037 91.240,32.190 92.814,32.514 93.338 C 32.650 93.558,32.546 93.689,32.283 93.629 C 32.020 93.569,31.714 93.769,31.603 94.073 C 31.468 94.445,31.571 94.523,31.914 94.311 C 32.252 94.102,32.328 94.153,32.138 94.461 C 31.979 94.718,31.697 94.834,31.512 94.720 C 31.023 94.418,29.402 97.207,29.744 97.761 C 29.921 98.047,29.861 98.122,29.590 97.955 C 29.042 97.616,27.772 99.942,28.161 100.572 C 28.326 100.840,28.259 100.910,27.995 100.746 C 27.446 100.408,26.176 102.733,26.566 103.363 C 26.731 103.631,26.664 103.702,26.400 103.538 C 25.851 103.199,24.581 105.525,24.971 106.155 C 25.152 106.449,25.066 106.492,24.720 106.277 C 24.333 106.038,24.262 106.134,24.454 106.635 C 24.606 107.030,24.555 107.220,24.334 107.083 C 23.831 106.772,19.823 114.773,20.109 115.518 C 20.250 115.885,20.162 115.990,19.868 115.808 C 19.556 115.615,19.491 115.745,19.668 116.207 C 19.813 116.583,19.774 116.794,19.583 116.676 C 19.100 116.377,18.200 118.685,18.568 119.280 C 18.772 119.611,18.700 119.661,18.339 119.438 C 17.952 119.199,17.881 119.295,18.073 119.796 C 18.218 120.172,18.179 120.383,17.988 120.265 C 17.505 119.966,16.605 122.274,16.972 122.869 C 17.148 123.153,17.105 123.251,16.870 123.105 C 16.354 122.786,14.196 128.231,14.587 128.864 C 14.764 129.149,14.708 129.230,14.447 129.069 C 13.925 128.746,13.392 130.213,13.795 130.866 C 13.985 131.174,13.906 131.221,13.558 131.006 C 13.168 130.765,13.092 130.902,13.260 131.543 C 13.384 132.017,13.337 132.313,13.157 132.201 C 12.709 131.924,9.438 141.850,9.729 142.606 C 9.877 142.993,9.798 143.111,9.509 142.932 C 9.190 142.735,9.136 142.995,9.326 143.809 C 9.495 144.534,9.463 144.767,9.240 144.433 C 8.773 143.734,7.850 147.288,8.187 148.492 C 8.384 149.199,8.346 149.246,7.971 148.754 C 7.601 148.269,7.548 148.361,7.688 149.240 C 7.794 149.907,7.706 150.229,7.457 150.075 C 7.197 149.915,7.147 150.309,7.315 151.184 C 7.513 152.214,7.472 152.398,7.144 151.944 C 6.813 151.486,6.766 151.654,6.939 152.662 C 7.064 153.386,7.007 153.880,6.813 153.760 C 6.365 153.482,5.422 157.329,5.737 158.151 C 5.889 158.548,5.811 158.665,5.516 158.483 C 5.190 158.282,5.134 158.589,5.321 159.559 C 5.519 160.588,5.478 160.772,5.151 160.319 C 4.825 159.867,4.774 160.110,4.941 161.316 C 5.105 162.499,5.053 162.757,4.742 162.313 C 4.434 161.874,4.386 162.193,4.560 163.509 C 4.739 164.864,4.690 165.157,4.361 164.706 C 4.030 164.252,3.974 164.535,4.128 165.882 C 4.274 167.148,4.216 167.490,3.928 167.078 C 3.638 166.664,3.586 166.953,3.744 168.096 C 3.908 169.276,3.857 169.536,3.547 169.093 C 3.242 168.658,3.187 169.093,3.345 170.688 C 3.501 172.274,3.453 172.660,3.170 172.084 C 2.889 171.508,2.828 171.999,2.954 173.851 C 3.075 175.635,3.006 176.243,2.729 175.845 C 2.447 175.442,2.389 175.797,2.533 177.048 C 2.645 178.024,2.595 178.592,2.421 178.311 C 1.887 177.446,1.544 181.633,1.760 186.380 C 1.885 189.116,1.834 190.367,1.627 189.631 C 1.426 188.915,1.291 193.317,1.291 200.598 C 1.291 207.879,1.426 212.281,1.627 211.565 C 1.834 210.829,1.885 212.081,1.760 214.816 C 1.544 219.563,1.887 223.750,2.421 222.885 C 2.595 222.604,2.645 223.173,2.533 224.148 C 2.389 225.400,2.447 225.754,2.729 225.351 C 3.006 224.954,3.075 225.561,2.954 227.345 C 2.828 229.197,2.889 229.689,3.170 229.113 C 3.453 228.536,3.501 228.923,3.345 230.508 C 3.187 232.104,3.242 232.539,3.547 232.104 C 3.857 231.661,3.908 231.920,3.744 233.101 C 3.586 234.243,3.638 234.532,3.928 234.118 C 4.216 233.706,4.274 234.048,4.128 235.315 C 3.974 236.661,4.030 236.945,4.361 236.491 C 4.690 236.039,4.739 236.333,4.560 237.687 C 4.386 239.004,4.434 239.322,4.742 238.883 C 5.053 238.440,5.105 238.697,4.941 239.880 C 4.774 241.086,4.825 241.329,5.151 240.877 C 5.478 240.424,5.519 240.608,5.321 241.637 C 5.135 242.605,5.191 242.915,5.515 242.714 C 5.836 242.516,5.903 242.820,5.743 243.749 C 5.569 244.757,5.617 244.925,5.948 244.467 C 6.275 244.013,6.317 244.197,6.119 245.227 C 5.950 246.102,6.001 246.496,6.261 246.335 C 6.511 246.181,6.588 246.484,6.465 247.130 C 6.343 247.769,6.420 248.079,6.664 247.928 C 6.908 247.777,6.986 248.086,6.864 248.725 C 6.741 249.364,6.819 249.674,7.063 249.523 C 7.307 249.372,7.385 249.682,7.262 250.321 C 7.140 250.960,7.218 251.269,7.462 251.118 C 7.705 250.968,7.793 251.297,7.688 251.956 C 7.548 252.835,7.601 252.927,7.971 252.443 C 8.346 251.951,8.384 251.997,8.187 252.705 C 7.850 253.908,8.773 257.463,9.240 256.763 C 9.463 256.430,9.495 256.662,9.326 257.387 C 9.136 258.202,9.190 258.461,9.509 258.264 C 9.798 258.086,9.877 258.203,9.729 258.590 C 9.438 259.347,12.709 269.272,13.157 268.995 C 13.337 268.884,13.384 269.180,13.260 269.653 C 13.092 270.294,13.168 270.431,13.558 270.190 C 13.906 269.975,13.985 270.022,13.795 270.331 C 13.392 270.983,13.925 272.451,14.447 272.128 C 14.708 271.966,14.764 272.047,14.587 272.333 C 14.196 272.966,16.354 278.410,16.870 278.091 C 17.105 277.946,17.148 278.044,16.972 278.327 C 16.575 278.970,17.524 281.218,18.054 280.890 C 18.304 280.736,18.347 280.830,18.162 281.130 C 17.797 281.720,19.105 284.816,19.592 284.515 C 19.779 284.400,19.813 284.613,19.668 284.990 C 19.491 285.451,19.556 285.581,19.868 285.389 C 20.162 285.207,20.250 285.312,20.109 285.678 C 19.823 286.423,23.831 294.424,24.334 294.113 C 24.555 293.977,24.606 294.166,24.454 294.561 C 24.262 295.062,24.333 295.158,24.720 294.919 C 25.066 294.705,25.152 294.747,24.971 295.041 C 24.581 295.671,25.851 297.997,26.400 297.658 C 26.664 297.495,26.731 297.565,26.566 297.833 C 26.176 298.463,27.446 300.789,27.995 300.450 C 28.259 300.286,28.326 300.357,28.161 300.625 C 27.813 301.187,29.020 303.594,29.501 303.297 C 29.696 303.176,29.985 303.288,30.144 303.545 C 30.324 303.836,30.259 303.905,29.972 303.727 C 29.289 303.305,29.410 303.829,30.343 305.339 C 30.801 306.079,31.327 306.591,31.512 306.477 C 31.697 306.362,31.979 306.478,32.138 306.735 C 32.328 307.044,32.252 307.095,31.914 306.885 C 31.571 306.673,31.468 306.751,31.603 307.123 C 31.714 307.428,31.985 307.639,32.206 307.593 C 32.427 307.547,32.584 307.816,32.555 308.191 C 32.526 308.566,32.740 308.824,33.031 308.764 C 33.321 308.704,33.447 308.834,33.311 309.055 C 32.987 309.579,33.835 311.153,34.290 310.872 C 34.483 310.753,34.771 310.865,34.929 311.122 C 35.110 311.414,35.045 311.482,34.758 311.304 C 34.504 311.148,34.297 311.188,34.297 311.393 C 34.297 311.897,35.311 312.712,35.590 312.433 C 35.712 312.310,35.786 312.532,35.753 312.925 C 35.720 313.318,35.902 313.644,36.158 313.649 C 36.414 313.655,36.773 313.822,36.956 314.022 C 37.152 314.236,37.063 314.255,36.738 314.066 C 36.362 313.848,36.246 313.922,36.372 314.301 C 36.474 314.606,36.751 314.855,36.989 314.855 C 37.227 314.855,37.571 315.019,37.753 315.218 C 37.946 315.429,37.877 315.461,37.587 315.295 C 36.859 314.876,36.976 315.372,37.917 316.693 C 38.372 317.333,38.898 317.761,39.086 317.645 C 39.273 317.529,39.556 317.645,39.715 317.902 C 39.895 318.193,39.831 318.262,39.543 318.084 C 39.290 317.927,39.083 317.967,39.083 318.173 C 39.083 318.603,40.316 319.708,40.573 319.508 C 40.667 319.435,40.864 319.509,41.010 319.672 C 41.157 319.835,41.052 319.839,40.778 319.681 C 40.503 319.524,40.279 319.563,40.279 319.768 C 40.279 320.198,41.512 321.303,41.770 321.103 C 41.864 321.030,42.060 321.104,42.207 321.267 C 42.353 321.430,42.248 321.434,41.974 321.277 C 41.700 321.119,41.476 321.152,41.476 321.350 C 41.476 321.788,43.077 323.284,43.345 323.097 C 43.450 323.024,43.656 323.098,43.802 323.261 C 43.948 323.424,43.843 323.428,43.569 323.271 C 42.744 322.796,43.001 323.426,44.302 325.069 C 44.979 325.924,45.677 326.535,45.852 326.427 C 46.027 326.319,46.416 326.542,46.715 326.924 C 47.207 327.551,47.192 327.565,46.560 327.070 C 46.176 326.769,45.862 326.693,45.862 326.901 C 45.862 327.405,47.660 329.076,47.922 328.815 C 48.035 328.702,48.470 329.011,48.889 329.502 C 49.506 330.225,49.518 330.292,48.953 329.855 C 48.569 329.557,48.255 329.484,48.255 329.692 C 48.255 330.192,50.052 331.869,50.310 331.610 C 50.421 331.500,50.946 331.900,51.477 332.501 C 52.349 333.488,52.356 333.520,51.545 332.837 C 51.029 332.401,50.648 332.277,50.648 332.545 C 50.648 333.143,66.870 349.352,67.469 349.352 C 67.717 349.352,67.580 348.948,67.163 348.455 C 66.480 347.644,66.512 347.651,67.499 348.523 C 68.100 349.054,68.500 349.580,68.388 349.691 C 68.130 349.949,70.210 352.144,70.712 352.144 C 70.917 352.144,70.838 351.830,70.537 351.446 C 70.040 350.811,70.054 350.798,70.698 351.303 C 71.087 351.609,71.309 351.954,71.192 352.071 C 70.926 352.338,72.587 354.138,73.099 354.138 C 73.307 354.138,73.231 353.824,72.930 353.440 C 72.432 352.805,72.447 352.792,73.090 353.297 C 73.480 353.603,73.703 353.947,73.588 354.062 C 73.327 354.324,74.569 355.733,75.060 355.733 C 75.259 355.733,75.293 355.526,75.136 355.272 C 74.959 354.985,75.027 354.920,75.319 355.101 C 75.576 355.259,75.692 355.540,75.578 355.725 C 75.464 355.910,76.070 356.616,76.925 357.293 C 78.568 358.594,79.198 358.851,78.723 358.026 C 78.557 357.736,78.589 357.667,78.799 357.860 C 78.999 358.043,79.165 358.312,79.169 358.458 C 79.180 358.958,79.807 359.721,80.207 359.721 C 80.426 359.721,80.477 359.514,80.321 359.260 C 80.143 358.973,80.212 358.908,80.503 359.089 C 80.760 359.247,80.877 359.528,80.762 359.713 C 80.648 359.898,81.432 360.693,82.504 361.480 C 84.544 362.978,85.187 363.250,84.705 362.413 C 84.539 362.123,84.571 362.054,84.782 362.247 C 84.981 362.429,85.149 362.788,85.154 363.044 C 85.159 363.300,85.485 363.483,85.879 363.450 C 86.272 363.417,86.493 363.490,86.371 363.612 C 86.092 363.891,86.907 364.905,87.410 364.905 C 87.616 364.905,87.656 364.698,87.499 364.445 C 87.322 364.157,87.390 364.093,87.682 364.273 C 87.938 364.432,88.051 364.720,87.932 364.913 C 87.650 365.368,89.224 366.215,89.749 365.891 C 89.969 365.755,90.100 365.881,90.040 366.172 C 89.979 366.464,90.240 366.675,90.624 366.645 C 91.005 366.615,91.224 366.742,91.110 366.927 C 90.820 367.395,92.790 368.623,93.312 368.300 C 93.547 368.155,93.689 368.252,93.629 368.515 C 93.569 368.778,93.769 369.084,94.073 369.194 C 94.445 369.329,94.523 369.227,94.311 368.883 C 94.102 368.545,94.153 368.469,94.461 368.660 C 94.718 368.819,94.831 369.106,94.711 369.300 C 94.592 369.493,94.846 369.839,95.277 370.070 C 96.294 370.614,96.627 370.600,96.273 370.028 C 96.095 369.741,96.164 369.676,96.455 369.856 C 96.712 370.015,96.825 370.303,96.705 370.496 C 96.408 370.977,98.013 371.789,98.574 371.442 C 98.844 371.276,98.917 371.340,98.754 371.603 C 98.417 372.149,99.948 373.022,100.568 372.639 C 100.840 372.471,100.911 372.537,100.745 372.804 C 100.405 373.355,103.527 375.022,104.163 374.629 C 104.455 374.449,104.497 374.536,104.283 374.882 C 104.044 375.268,104.140 375.339,104.641 375.147 C 105.102 374.970,105.232 375.035,105.040 375.347 C 104.848 375.658,104.978 375.723,105.439 375.546 C 105.834 375.394,106.023 375.445,105.887 375.666 C 105.576 376.169,114.375 380.575,115.120 380.289 C 115.436 380.168,115.596 380.228,115.477 380.421 C 115.196 380.875,116.389 381.341,116.947 380.997 C 117.187 380.848,117.256 380.922,117.105 381.166 C 116.782 381.689,118.249 382.222,118.902 381.819 C 119.212 381.627,119.257 381.707,119.039 382.060 C 118.800 382.447,118.896 382.518,119.397 382.326 C 119.774 382.181,119.980 382.227,119.855 382.428 C 119.562 382.903,121.088 383.389,121.693 383.015 C 122.003 382.823,122.049 382.904,121.831 383.256 C 121.592 383.643,121.688 383.714,122.189 383.522 C 122.566 383.377,122.772 383.423,122.647 383.625 C 122.354 384.099,123.879 384.586,124.485 384.211 C 124.763 384.040,124.842 384.098,124.682 384.356 C 124.359 384.879,125.827 385.412,126.479 385.009 C 126.757 384.837,126.836 384.896,126.676 385.154 C 126.353 385.677,127.821 386.210,128.473 385.807 C 128.781 385.616,128.829 385.695,128.613 386.043 C 128.372 386.433,128.509 386.509,129.151 386.341 C 129.624 386.218,129.920 386.264,129.808 386.445 C 129.527 386.899,133.471 388.162,134.051 387.804 C 134.365 387.610,134.413 387.687,134.197 388.037 C 133.956 388.427,134.093 388.503,134.734 388.335 C 135.285 388.191,135.500 388.263,135.332 388.535 C 135.164 388.807,135.379 388.878,135.930 388.734 C 136.482 388.590,136.697 388.662,136.528 388.934 C 136.360 389.205,136.575 389.277,137.127 389.133 C 137.673 388.990,137.892 389.061,137.728 389.328 C 137.556 389.606,137.858 389.657,138.624 389.478 C 139.384 389.301,139.592 389.334,139.229 389.576 C 138.540 390.035,140.900 390.647,141.627 390.197 C 141.902 390.028,141.992 390.078,141.844 390.317 C 141.523 390.836,144.920 391.823,145.593 391.407 C 145.929 391.200,145.984 391.268,145.765 391.621 C 145.524 392.011,145.703 392.090,146.489 391.940 C 147.063 391.830,147.447 391.879,147.342 392.049 C 147.080 392.474,149.420 392.950,150.002 392.590 C 150.317 392.396,150.365 392.472,150.149 392.822 C 149.896 393.231,150.122 393.288,151.184 393.084 C 151.950 392.937,152.318 392.967,152.029 393.154 C 151.335 393.602,155.631 394.555,156.826 394.219 C 157.562 394.012,157.617 394.050,157.129 394.424 C 156.659 394.783,156.873 394.834,158.126 394.660 C 159.060 394.531,159.498 394.579,159.183 394.775 C 158.474 395.217,161.210 395.751,162.430 395.409 C 163.150 395.207,163.201 395.245,162.712 395.617 C 162.246 395.972,162.546 396.031,164.062 395.886 C 165.395 395.758,165.835 395.822,165.458 396.088 C 165.078 396.355,165.404 396.408,166.500 396.256 C 167.436 396.126,167.873 396.174,167.557 396.371 C 166.782 396.854,170.355 397.328,172.416 397.015 C 173.706 396.819,173.944 396.864,173.480 397.217 C 173.019 397.567,173.431 397.622,175.266 397.459 C 176.973 397.307,177.483 397.364,177.061 397.659 C 176.635 397.957,177.024 398.014,178.465 397.865 C 179.880 397.718,180.227 397.766,179.661 398.032 C 179.128 398.282,180.185 398.350,182.851 398.236 C 185.332 398.131,186.312 398.186,185.444 398.382 C 184.674 398.557,190.934 398.699,199.402 398.699 C 208.216 398.699,214.161 398.560,213.360 398.373 C 212.419 398.153,212.967 398.110,215.042 398.241 C 218.365 398.451,222.481 398.068,221.750 397.617 C 221.503 397.464,222.341 397.412,223.612 397.500 C 225.388 397.624,225.784 397.558,225.324 397.212 C 224.864 396.866,225.116 396.822,226.421 397.020 C 228.509 397.338,231.667 396.882,230.860 396.378 C 230.531 396.173,230.936 396.135,231.867 396.285 C 233.022 396.471,233.348 396.412,233.129 396.058 C 232.916 395.713,233.121 395.653,233.869 395.841 C 235.229 396.182,240.353 395.232,239.620 394.774 C 239.306 394.579,239.747 394.531,240.678 394.660 C 241.930 394.834,242.145 394.783,241.675 394.424 C 241.184 394.048,241.235 394.010,241.957 394.213 C 243.194 394.560,245.907 394.021,245.204 393.568 C 244.879 393.359,245.204 393.325,246.024 393.483 C 246.899 393.651,247.294 393.600,247.133 393.340 C 246.979 393.091,247.282 393.013,247.928 393.136 C 248.567 393.259,248.876 393.181,248.725 392.937 C 248.575 392.694,248.904 392.606,249.563 392.711 C 250.442 392.851,250.535 392.797,250.050 392.428 C 249.558 392.053,249.606 392.015,250.315 392.213 C 251.458 392.533,253.305 392.053,252.977 391.521 C 252.824 391.274,252.911 391.222,253.188 391.394 C 253.872 391.816,256.093 391.249,255.774 390.733 C 255.616 390.477,255.698 390.422,255.980 390.596 C 256.707 391.045,259.067 390.434,258.378 389.974 C 258.016 389.733,258.223 389.699,258.983 389.877 C 259.797 390.066,260.056 390.012,259.859 389.694 C 259.681 389.405,259.798 389.325,260.184 389.474 C 261.057 389.808,266.068 388.067,265.744 387.542 C 265.586 387.287,265.668 387.232,265.948 387.404 C 266.610 387.814,269.261 386.875,268.935 386.347 C 268.777 386.090,268.858 386.035,269.139 386.208 C 269.801 386.617,272.452 385.679,272.126 385.151 C 271.968 384.895,272.048 384.838,272.325 385.009 C 272.977 385.412,274.445 384.879,274.122 384.356 C 273.962 384.098,274.041 384.040,274.319 384.211 C 274.971 384.614,276.439 384.081,276.116 383.559 C 275.956 383.300,276.035 383.242,276.313 383.414 C 276.918 383.788,278.444 383.301,278.151 382.827 C 278.026 382.626,278.232 382.580,278.609 382.724 C 279.110 382.917,279.206 382.846,278.967 382.459 C 278.744 382.098,278.794 382.025,279.125 382.230 C 279.720 382.598,282.028 381.698,281.729 381.215 C 281.611 381.023,281.822 380.985,282.198 381.129 C 282.659 381.306,282.789 381.241,282.597 380.930 C 282.415 380.636,282.520 380.548,282.886 380.688 C 283.713 381.005,293.223 376.162,292.876 375.600 C 292.710 375.331,292.777 375.261,293.044 375.426 C 293.683 375.821,297.602 373.756,297.261 373.204 C 297.096 372.937,297.165 372.869,297.434 373.035 C 298.064 373.425,300.390 372.155,300.051 371.606 C 299.887 371.341,299.958 371.275,300.229 371.442 C 300.850 371.826,302.380 370.952,302.043 370.407 C 301.881 370.144,301.953 370.079,302.223 370.246 C 302.785 370.593,304.390 369.781,304.092 369.300 C 303.973 369.106,304.085 368.819,304.342 368.660 C 304.651 368.469,304.702 368.545,304.493 368.883 C 304.280 369.227,304.359 369.329,304.730 369.194 C 305.035 369.084,305.235 368.778,305.175 368.515 C 305.114 368.252,305.252 368.152,305.481 368.294 C 306.000 368.614,308.756 366.955,308.471 366.494 C 308.356 366.309,308.472 366.027,308.729 365.868 C 309.038 365.678,309.089 365.753,308.879 366.092 C 308.668 366.433,308.748 366.542,309.117 366.419 C 309.422 366.318,309.671 366.040,309.671 365.803 C 309.671 365.565,309.834 365.221,310.034 365.038 C 310.248 364.842,310.266 364.931,310.078 365.256 C 309.860 365.632,309.934 365.748,310.313 365.622 C 310.618 365.520,310.867 365.243,310.867 365.005 C 310.867 364.767,311.031 364.423,311.230 364.241 C 311.441 364.048,311.473 364.117,311.307 364.407 C 311.149 364.681,311.188 364.905,311.393 364.905 C 311.897 364.905,312.712 363.891,312.433 363.612 C 312.310 363.490,312.532 363.417,312.925 363.450 C 313.318 363.483,313.644 363.300,313.649 363.044 C 313.655 362.788,313.822 362.429,314.022 362.247 C 314.236 362.050,314.255 362.140,314.066 362.464 C 313.848 362.841,313.922 362.956,314.301 362.830 C 314.606 362.728,314.855 362.451,314.855 362.213 C 314.855 361.976,315.019 361.632,315.218 361.449 C 315.429 361.256,315.461 361.326,315.295 361.615 C 315.137 361.889,315.176 362.114,315.381 362.114 C 315.817 362.114,316.582 361.267,316.583 360.784 C 316.583 360.602,316.717 360.332,316.880 360.186 C 317.043 360.040,317.048 360.145,316.890 360.419 C 316.732 360.693,316.771 360.917,316.976 360.917 C 317.412 360.917,318.177 360.071,318.178 359.588 C 318.178 359.405,318.312 359.136,318.475 358.990 C 318.638 358.843,318.643 358.948,318.485 359.222 C 318.327 359.497,318.366 359.721,318.572 359.721 C 319.001 359.721,320.106 358.488,319.907 358.230 C 319.834 358.136,319.907 357.940,320.071 357.793 C 320.234 357.647,320.238 357.752,320.080 358.026 C 319.605 358.851,320.236 358.594,321.879 357.293 C 322.734 356.616,323.345 355.918,323.237 355.743 C 323.128 355.568,323.352 355.180,323.733 354.881 C 324.361 354.389,324.375 354.403,323.879 355.035 C 323.578 355.419,323.506 355.733,323.718 355.733 C 324.228 355.733,325.485 354.331,325.216 354.062 C 325.100 353.947,325.314 353.603,325.690 353.297 C 326.143 352.930,326.273 352.910,326.075 353.240 C 325.910 353.514,325.938 353.739,326.136 353.739 C 326.628 353.739,327.870 352.330,327.608 352.068 C 327.493 351.953,327.717 351.609,328.106 351.303 C 328.749 350.798,328.764 350.811,328.266 351.446 C 327.965 351.830,327.889 352.144,328.097 352.144 C 328.594 352.144,330.275 350.348,330.018 350.091 C 329.908 349.982,330.397 349.367,331.105 348.725 C 331.818 348.077,332.055 347.956,331.637 348.455 C 331.222 348.948,331.044 349.352,331.241 349.352 C 331.713 349.352,348.156 332.916,348.156 332.444 C 348.156 332.244,347.752 332.420,347.258 332.837 C 346.448 333.520,346.454 333.488,347.326 332.501 C 347.857 331.900,348.382 331.500,348.493 331.610 C 348.752 331.869,350.548 330.192,350.548 329.692 C 350.548 329.484,350.234 329.557,349.850 329.855 C 349.286 330.292,349.298 330.225,349.914 329.502 C 350.334 329.011,350.769 328.702,350.882 328.815 C 351.143 329.076,352.941 327.405,352.941 326.901 C 352.941 326.693,352.627 326.769,352.243 327.070 C 351.609 327.568,351.596 327.553,352.101 326.910 C 352.406 326.520,352.750 326.297,352.866 326.412 C 353.127 326.673,354.536 325.431,354.536 324.940 C 354.536 324.741,354.329 324.707,354.076 324.864 C 353.788 325.041,353.724 324.973,353.904 324.681 C 354.063 324.424,354.344 324.308,354.529 324.422 C 354.714 324.536,355.419 323.930,356.097 323.075 C 357.372 321.465,357.664 320.782,356.868 321.274 C 356.573 321.456,356.516 321.383,356.708 321.072 C 356.874 320.804,357.109 320.685,357.232 320.807 C 357.511 321.086,358.524 320.271,358.524 319.768 C 358.524 319.563,358.317 319.523,358.064 319.679 C 357.776 319.857,357.712 319.788,357.892 319.497 C 358.051 319.240,358.334 319.125,358.521 319.240 C 358.709 319.356,359.235 318.928,359.690 318.288 C 360.613 316.992,360.753 316.458,360.058 316.888 C 359.770 317.065,359.706 316.997,359.886 316.705 C 360.045 316.448,360.328 316.333,360.516 316.449 C 360.984 316.738,362.624 314.362,362.309 313.851 C 362.169 313.625,362.292 313.489,362.583 313.549 C 362.873 313.610,363.087 313.352,363.058 312.977 C 363.029 312.602,363.208 312.332,363.457 312.379 C 363.705 312.425,363.911 312.161,363.913 311.793 C 363.916 311.424,364.080 310.976,364.276 310.796 C 364.485 310.605,364.499 310.702,364.309 311.029 C 364.084 311.417,364.134 311.497,364.472 311.287 C 364.740 311.122,364.866 310.741,364.750 310.441 C 364.635 310.141,364.741 309.773,364.984 309.622 C 365.269 309.446,365.323 309.549,365.136 309.908 C 364.976 310.217,365.225 310.035,365.690 309.506 C 366.155 308.976,366.444 308.305,366.333 308.015 C 366.222 307.725,366.326 307.530,366.565 307.582 C 366.804 307.634,367.090 307.428,367.200 307.123 C 367.335 306.751,367.233 306.673,366.889 306.885 C 366.551 307.095,366.475 307.044,366.666 306.735 C 366.825 306.478,367.112 306.366,367.306 306.485 C 367.761 306.766,368.608 305.192,368.284 304.668 C 368.148 304.448,368.252 304.317,368.515 304.377 C 368.778 304.437,369.084 304.237,369.194 303.933 C 369.329 303.561,369.227 303.483,368.883 303.695 C 368.545 303.904,368.469 303.853,368.660 303.545 C 368.819 303.288,369.108 303.176,369.303 303.297 C 369.784 303.594,370.990 301.187,370.643 300.625 C 370.477 300.356,370.544 300.286,370.810 300.451 C 371.361 300.791,373.028 297.669,372.635 297.033 C 372.472 296.769,372.539 296.698,372.800 296.859 C 373.345 297.196,374.219 295.665,373.835 295.045 C 373.651 294.747,373.736 294.704,374.084 294.919 C 374.471 295.158,374.542 295.062,374.350 294.561 C 374.205 294.185,374.231 293.966,374.407 294.074 C 374.857 294.353,377.344 289.179,377.016 288.648 C 376.842 288.366,376.934 288.328,377.274 288.538 C 377.661 288.777,377.732 288.681,377.540 288.180 C 377.392 287.794,377.440 287.597,377.652 287.727 C 378.155 288.038,378.983 286.429,378.699 285.691 C 378.575 285.368,378.632 285.201,378.826 285.321 C 379.280 285.601,379.746 284.408,379.401 283.851 C 379.253 283.610,379.327 283.542,379.571 283.693 C 380.093 284.016,380.626 282.548,380.223 281.896 C 380.055 281.624,380.110 281.539,380.355 281.691 C 380.858 282.001,381.368 280.863,380.997 280.261 C 380.848 280.021,380.922 279.953,381.166 280.104 C 381.689 280.427,382.222 278.959,381.819 278.307 C 381.647 278.029,381.705 277.950,381.964 278.110 C 382.486 278.433,383.019 276.965,382.616 276.313 C 382.451 276.046,382.502 275.956,382.736 276.100 C 383.269 276.430,385.832 269.821,385.426 269.164 C 385.237 268.858,385.285 268.772,385.553 268.937 C 386.075 269.260,386.608 267.793,386.205 267.140 C 386.015 266.832,386.094 266.785,386.442 267.000 C 386.832 267.241,386.908 267.104,386.740 266.463 C 386.596 265.911,386.668 265.696,386.939 265.864 C 387.211 266.032,387.283 265.818,387.139 265.266 C 386.995 264.715,387.066 264.500,387.338 264.668 C 387.610 264.836,387.682 264.621,387.538 264.070 C 387.394 263.518,387.465 263.303,387.737 263.472 C 388.009 263.640,388.081 263.425,387.937 262.873 C 387.794 262.327,387.865 262.108,388.131 262.272 C 388.410 262.444,388.460 262.142,388.281 261.376 C 388.104 260.616,388.138 260.408,388.379 260.771 C 388.838 261.460,389.450 259.100,389.001 258.373 C 388.806 258.058,388.883 258.009,389.234 258.226 C 389.623 258.467,389.699 258.330,389.532 257.689 C 389.408 257.216,389.450 256.917,389.626 257.026 C 390.078 257.305,390.508 255.335,390.219 254.303 C 390.021 253.594,390.059 253.546,390.434 254.038 C 390.803 254.523,390.857 254.430,390.717 253.551 C 390.612 252.892,390.700 252.563,390.943 252.713 C 391.187 252.864,391.264 252.555,391.142 251.916 C 391.020 251.277,391.098 250.967,391.342 251.118 C 391.586 251.269,391.663 250.960,391.541 250.321 C 391.418 249.675,391.495 249.371,391.745 249.526 C 392.005 249.686,392.056 249.292,391.887 248.417 C 391.740 247.651,391.771 247.283,391.958 247.572 C 392.405 248.266,393.359 243.970,393.023 242.775 C 392.817 242.043,392.854 241.986,393.222 242.473 C 393.585 242.950,393.644 242.814,393.520 241.796 C 393.427 241.033,393.521 240.617,393.754 240.761 C 393.995 240.910,394.044 240.488,393.881 239.643 C 393.684 238.616,393.725 238.431,394.051 238.883 C 394.372 239.330,394.421 239.028,394.244 237.687 C 394.065 236.333,394.114 236.039,394.443 236.491 C 394.774 236.945,394.830 236.661,394.675 235.315 C 394.530 234.048,394.587 233.706,394.876 234.118 C 395.166 234.532,395.218 234.243,395.059 233.101 C 394.896 231.920,394.947 231.661,395.257 232.104 C 395.561 232.539,395.616 232.104,395.459 230.508 C 395.303 228.923,395.351 228.536,395.633 229.113 C 395.915 229.689,395.975 229.197,395.850 227.345 C 395.729 225.561,395.797 224.954,396.075 225.351 C 396.357 225.754,396.414 225.400,396.270 224.148 C 396.158 223.173,396.211 222.608,396.387 222.893 C 396.974 223.842,397.279 219.037,397.013 213.034 C 396.845 209.227,396.889 207.373,397.139 207.733 C 397.722 208.573,398.157 201.335,397.802 196.710 C 397.589 193.938,397.403 193.050,397.153 193.619 C 396.943 194.095,396.896 191.965,397.034 188.340 C 397.274 182.089,396.969 177.362,396.387 178.304 C 396.211 178.589,396.158 178.024,396.270 177.048 C 396.414 175.797,396.357 175.442,396.075 175.845 C 395.797 176.243,395.729 175.635,395.850 173.851 C 395.975 171.999,395.915 171.508,395.633 172.084 C 395.351 172.660,395.303 172.274,395.459 170.688 C 395.616 169.093,395.561 168.658,395.257 169.093 C 394.947 169.536,394.896 169.276,395.059 168.096 C 395.218 166.953,395.166 166.664,394.876 167.078 C 394.587 167.490,394.530 167.148,394.675 165.882 C 394.820 164.618,394.763 164.274,394.476 164.685 C 394.189 165.096,394.131 164.752,394.276 163.489 C 394.430 162.155,394.374 161.863,394.050 162.313 C 393.725 162.765,393.684 162.580,393.881 161.553 C 394.044 160.709,393.995 160.286,393.754 160.435 C 393.521 160.579,393.427 160.163,393.520 159.401 C 393.639 158.427,393.577 158.267,393.260 158.724 C 392.954 159.164,392.902 158.902,393.065 157.727 C 393.232 156.521,393.181 156.278,392.855 156.730 C 392.528 157.183,392.487 156.999,392.685 155.970 C 392.853 155.095,392.803 154.700,392.543 154.861 C 392.293 155.015,392.215 154.712,392.339 154.066 C 392.461 153.427,392.384 153.118,392.139 153.269 C 391.895 153.420,391.818 153.110,391.940 152.471 C 392.090 151.685,392.011 151.506,391.621 151.747 C 391.270 151.964,391.200 151.911,391.404 151.581 C 391.849 150.860,391.278 148.276,390.746 148.605 C 390.474 148.773,390.419 148.694,390.602 148.398 C 390.970 147.802,390.071 143.896,389.629 144.169 C 389.452 144.278,389.408 143.981,389.532 143.507 C 389.699 142.866,389.623 142.729,389.234 142.970 C 388.883 143.187,388.806 143.138,389.001 142.824 C 389.450 142.097,388.838 139.736,388.379 140.425 C 388.138 140.788,388.104 140.581,388.281 139.821 C 388.460 139.054,388.410 138.752,388.131 138.924 C 387.865 139.089,387.794 138.869,387.937 138.323 C 388.081 137.772,388.009 137.557,387.737 137.725 C 387.465 137.893,387.394 137.678,387.538 137.127 C 387.682 136.575,387.610 136.360,387.338 136.528 C 387.066 136.697,386.995 136.482,387.139 135.930 C 387.307 135.289,387.230 135.152,386.841 135.393 C 386.491 135.609,386.413 135.561,386.607 135.248 C 386.966 134.668,386.101 131.920,385.648 132.200 C 385.467 132.312,385.420 132.017,385.544 131.543 C 385.711 130.902,385.635 130.765,385.245 131.006 C 384.897 131.221,384.818 131.174,385.009 130.866 C 385.412 130.213,384.879 128.746,384.356 129.069 C 384.098 129.228,384.040 129.149,384.211 128.872 C 384.614 128.219,384.081 126.752,383.559 127.075 C 383.300 127.234,383.242 127.155,383.414 126.878 C 383.817 126.225,383.284 124.758,382.761 125.081 C 382.503 125.240,382.445 125.161,382.616 124.884 C 383.019 124.231,382.486 122.764,381.964 123.087 C 381.699 123.250,381.648 123.166,381.831 122.869 C 382.228 122.226,381.280 119.978,380.750 120.306 C 380.502 120.459,380.456 120.367,380.635 120.077 C 381.032 119.435,380.083 117.187,379.553 117.514 C 379.321 117.658,379.258 117.578,379.409 117.333 C 379.736 116.805,375.250 107.645,374.801 107.922 C 374.628 108.030,374.604 107.809,374.748 107.433 C 374.941 106.932,374.869 106.836,374.483 107.075 C 374.137 107.289,374.050 107.247,374.231 106.955 C 374.623 106.319,372.956 103.197,372.406 103.537 C 372.139 103.702,372.072 103.632,372.238 103.363 C 372.627 102.733,371.357 100.408,370.809 100.746 C 370.544 100.910,370.477 100.840,370.643 100.572 C 370.990 100.009,369.784 97.602,369.303 97.900 C 369.108 98.020,368.819 97.909,368.660 97.652 C 368.469 97.343,368.545 97.292,368.883 97.501 C 369.227 97.714,369.329 97.635,369.194 97.264 C 369.084 96.959,368.778 96.759,368.515 96.819 C 368.252 96.880,368.148 96.749,368.284 96.529 C 368.608 96.004,367.761 94.430,367.306 94.711 C 367.112 94.831,366.825 94.718,366.666 94.461 C 366.475 94.153,366.551 94.102,366.889 94.311 C 367.233 94.523,367.335 94.445,367.200 94.073 C 367.090 93.769,366.784 93.569,366.521 93.629 C 366.258 93.689,366.161 93.547,366.306 93.312 C 366.645 92.763,365.389 90.828,364.892 91.135 C 364.685 91.263,364.616 91.107,364.738 90.789 C 364.860 90.471,364.740 90.075,364.472 89.909 C 364.134 89.700,364.084 89.779,364.309 90.168 C 364.499 90.494,364.485 90.591,364.276 90.401 C 364.080 90.221,363.916 89.772,363.913 89.404 C 363.911 89.035,363.705 88.772,363.457 88.818 C 363.208 88.864,363.029 88.595,363.058 88.220 C 363.087 87.844,362.907 87.575,362.659 87.621 C 362.411 87.668,362.231 87.403,362.260 87.033 C 362.289 86.663,362.104 86.356,361.848 86.351 C 361.592 86.345,361.233 86.178,361.050 85.978 C 360.857 85.767,360.927 85.735,361.216 85.902 C 361.491 86.060,361.715 86.059,361.715 85.901 C 361.715 85.294,354.885 76.554,354.565 76.752 C 354.380 76.867,353.983 76.648,353.684 76.267 C 353.192 75.639,353.207 75.625,353.838 76.121 C 354.222 76.422,354.536 76.494,354.536 76.282 C 354.536 75.772,353.135 74.515,352.866 74.784 C 352.750 74.900,352.406 74.686,352.101 74.310 C 351.733 73.857,351.714 73.727,352.044 73.925 C 352.318 74.090,352.542 74.062,352.542 73.864 C 352.542 73.372,351.133 72.130,350.872 72.392 C 350.756 72.507,350.412 72.283,350.107 71.894 C 349.602 71.251,349.615 71.236,350.249 71.734 C 350.633 72.035,350.947 72.111,350.947 71.903 C 350.947 71.406,349.151 69.725,348.894 69.982 C 348.785 70.092,348.170 69.603,347.528 68.895 C 346.880 68.182,346.760 67.945,347.258 68.363 C 347.752 68.778,348.156 68.956,348.156 68.759 C 348.156 68.287,331.719 51.844,331.248 51.844 C 331.047 51.844,331.222 52.248,331.637 52.742 C 332.055 53.240,331.818 53.120,331.105 52.472 C 330.397 51.830,329.908 51.215,330.018 51.106 C 330.275 50.849,328.594 49.053,328.097 49.053 C 327.889 49.053,327.965 49.367,328.266 49.751 C 328.764 50.385,328.749 50.398,328.106 49.893 C 327.717 49.588,327.494 49.242,327.611 49.125 C 327.878 48.859,326.217 47.059,325.704 47.059 C 325.496 47.059,325.572 47.373,325.873 47.757 C 326.371 48.391,326.357 48.404,325.713 47.899 C 325.324 47.594,325.100 47.250,325.216 47.134 C 325.477 46.873,324.235 45.464,323.743 45.464 C 323.545 45.464,323.511 45.671,323.667 45.924 C 323.849 46.218,323.776 46.276,323.465 46.083 C 323.197 45.918,323.080 45.680,323.205 45.556 C 323.478 45.282,322.259 43.868,321.749 43.868 C 321.551 43.868,321.518 44.093,321.675 44.367 C 321.842 44.657,321.810 44.726,321.599 44.533 C 321.400 44.350,321.234 44.081,321.230 43.935 C 321.227 43.789,321.082 43.445,320.908 43.170 C 320.494 42.519,319.706 42.519,320.080 43.170 C 320.247 43.460,320.215 43.530,320.004 43.337 C 319.804 43.154,319.638 42.885,319.635 42.738 C 319.623 42.239,318.996 41.476,318.597 41.476 C 318.378 41.476,318.327 41.700,318.485 41.974 C 318.652 42.264,318.620 42.333,318.409 42.140 C 318.209 41.957,318.043 41.688,318.040 41.542 C 318.036 41.396,317.891 41.052,317.717 40.778 C 317.304 40.127,316.515 40.127,316.890 40.778 C 317.057 41.067,317.025 41.137,316.814 40.944 C 316.614 40.761,316.448 40.492,316.445 40.346 C 316.433 39.846,315.806 39.083,315.407 39.083 C 315.187 39.083,315.137 39.307,315.295 39.581 C 315.461 39.871,315.429 39.941,315.218 39.747 C 315.019 39.565,314.855 39.221,314.855 38.983 C 314.855 38.745,314.606 38.468,314.301 38.366 C 313.922 38.240,313.848 38.356,314.066 38.732 C 314.255 39.057,314.236 39.146,314.022 38.950 C 313.822 38.767,313.656 38.498,313.653 38.352 C 313.650 38.205,313.504 37.861,313.330 37.587 C 312.917 36.936,312.128 36.936,312.503 37.587 C 312.670 37.877,312.638 37.946,312.427 37.753 C 312.227 37.571,312.064 37.227,312.064 36.989 C 312.064 36.751,311.815 36.474,311.510 36.372 C 311.131 36.246,311.057 36.362,311.275 36.738 C 311.463 37.063,311.445 37.152,311.230 36.956 C 311.031 36.773,310.867 36.429,310.867 36.191 C 310.867 35.954,310.618 35.676,310.313 35.575 C 309.934 35.448,309.860 35.564,310.078 35.940 C 310.266 36.265,310.248 36.354,310.034 36.158 C 309.834 35.975,309.671 35.631,309.671 35.394 C 309.671 35.156,309.422 34.879,309.117 34.777 C 308.738 34.651,308.664 34.766,308.882 35.143 C 309.070 35.468,309.052 35.557,308.838 35.361 C 308.638 35.178,308.475 34.834,308.475 34.596 C 308.475 34.359,308.225 34.081,307.921 33.980 C 307.551 33.856,307.472 33.966,307.683 34.307 C 307.892 34.645,307.841 34.721,307.533 34.531 C 307.276 34.372,307.163 34.084,307.283 33.891 C 307.564 33.436,305.990 32.588,305.465 32.912 C 305.245 33.049,305.114 32.945,305.175 32.682 C 305.235 32.419,305.035 32.113,304.730 32.002 C 304.359 31.867,304.280 31.969,304.493 32.313 C 304.702 32.651,304.651 32.727,304.342 32.537 C 304.085 32.378,303.973 32.090,304.092 31.897 C 304.390 31.416,302.785 30.603,302.223 30.950 C 301.953 31.117,301.881 31.052,302.043 30.790 C 302.380 30.244,300.850 29.371,300.229 29.754 C 299.959 29.921,299.887 29.856,300.049 29.593 C 300.386 29.048,298.856 28.174,298.235 28.558 C 297.937 28.742,297.894 28.657,298.109 28.309 C 298.348 27.922,298.253 27.851,297.752 28.043 C 297.360 28.194,297.167 28.144,297.301 27.927 C 297.609 27.430,294.423 25.810,293.843 26.168 C 293.575 26.334,293.507 26.264,293.674 25.995 C 294.021 25.433,284.510 20.590,283.683 20.907 C 283.318 21.047,283.213 20.960,283.395 20.665 C 283.587 20.354,283.457 20.289,282.996 20.466 C 282.619 20.610,282.408 20.572,282.527 20.381 C 282.825 19.897,280.518 18.997,279.923 19.365 C 279.592 19.570,279.542 19.497,279.765 19.136 C 280.004 18.750,279.908 18.679,279.407 18.871 C 279.029 19.016,278.824 18.969,278.948 18.768 C 279.241 18.294,277.716 17.807,277.110 18.181 C 276.800 18.373,276.755 18.293,276.973 17.940 C 277.212 17.553,277.116 17.482,276.615 17.674 C 276.238 17.819,276.032 17.773,276.157 17.572 C 276.450 17.097,274.924 16.611,274.319 16.985 C 274.041 17.157,273.962 17.098,274.122 16.840 C 274.445 16.317,272.977 15.784,272.325 16.187 C 272.047 16.359,271.968 16.301,272.128 16.042 C 272.451 15.520,270.983 14.987,270.331 15.390 C 270.022 15.581,269.975 15.501,270.190 15.153 C 270.431 14.764,270.294 14.687,269.653 14.855 C 269.180 14.979,268.884 14.932,268.996 14.751 C 269.276 14.297,266.529 13.433,265.948 13.792 C 265.635 13.985,265.587 13.908,265.803 13.558 C 266.044 13.168,265.907 13.092,265.266 13.260 C 264.793 13.384,264.497 13.337,264.609 13.155 C 264.884 12.711,262.136 11.832,261.379 12.123 C 260.992 12.271,260.877 12.190,261.059 11.897 C 261.251 11.586,261.066 11.512,260.481 11.665 C 259.934 11.808,259.715 11.736,259.879 11.470 C 260.052 11.192,259.750 11.141,258.983 11.320 C 258.269 11.486,258.027 11.455,258.352 11.238 C 259.028 10.786,255.519 9.747,254.805 10.188 C 254.507 10.372,254.415 10.328,254.572 10.074 C 254.900 9.543,253.053 9.062,251.910 9.382 C 251.363 9.535,251.228 9.497,251.543 9.276 C 252.215 8.806,244.799 7.030,243.588 7.371 C 242.842 7.582,242.783 7.544,243.270 7.171 C 243.745 6.807,243.597 6.759,242.552 6.939 C 241.631 7.098,241.320 7.031,241.515 6.716 C 241.705 6.409,241.461 6.329,240.749 6.465 C 240.103 6.588,239.800 6.511,239.954 6.261 C 240.115 6.001,239.721 5.950,238.846 6.119 C 237.819 6.316,237.633 6.275,238.086 5.950 C 238.535 5.626,238.244 5.570,236.910 5.724 C 235.647 5.869,235.302 5.811,235.714 5.524 C 236.125 5.237,235.781 5.180,234.517 5.325 C 233.251 5.470,232.908 5.413,233.321 5.124 C 233.734 4.834,233.446 4.782,232.303 4.941 C 231.122 5.104,230.863 5.053,231.306 4.743 C 231.741 4.439,231.306 4.384,229.711 4.541 C 228.137 4.696,227.743 4.648,228.315 4.370 C 228.902 4.086,228.503 4.019,226.802 4.120 C 225.329 4.207,224.679 4.124,225.008 3.891 C 225.337 3.658,224.881 3.600,223.750 3.730 C 222.498 3.873,222.146 3.816,222.553 3.535 C 222.951 3.261,222.262 3.201,220.339 3.345 C 218.391 3.490,217.848 3.442,218.544 3.185 C 219.220 2.937,217.904 2.852,214.466 2.922 C 211.674 2.980,209.578 2.911,209.808 2.769 C 210.861 2.118,195.393 1.742,190.053 2.289 M339.781 60.419 C 342.955 63.599,345.463 66.201,345.354 66.201 C 345.244 66.201,342.557 63.599,339.382 60.419 C 336.207 57.238,333.699 54.636,333.809 54.636 C 333.919 54.636,336.606 57.238,339.781 60.419 M64.606 55.140 C 64.606 55.198,62.049 57.755,58.923 60.823 L 53.240 66.401 58.818 60.718 C 64.000 55.439,64.606 54.854,64.606 55.140 M211.531 113.416 C 215.841 115.438,217.208 117.492,220.753 127.274 C 238.758 176.955,251.333 198.702,259.589 194.433 C 266.335 190.945,287.340 151.066,296.904 123.590 C 299.802 115.262,302.270 113.188,309.273 113.188 C 314.960 113.188,317.871 114.992,320.124 119.913 L 321.087 122.016 321.050 199.355 C 321.009 283.751,321.128 279.438,318.765 282.725 C 314.032 289.310,302.587 288.647,299.003 281.581 L 297.906 279.418 297.875 236.718 C 297.831 178.638,298.195 180.750,290.400 193.349 C 278.449 212.667,270.221 219.143,257.627 219.143 C 244.101 219.143,234.703 211.968,223.212 192.869 C 219.903 187.370,218.518 186.665,217.725 190.081 C 217.526 190.940,217.360 210.301,217.351 233.699 C 217.331 282.681,217.477 280.756,213.464 285.197 C 210.761 288.189,209.613 288.542,202.792 288.480 C 177.998 288.253,150.874 268.920,126.085 233.806 C 123.046 229.501,122.382 228.913,120.552 228.913 C 118.956 228.913,115.076 231.454,113.980 233.217 L 113.061 234.696 112.861 257.428 L 112.662 280.160 111.556 282.040 C 107.120 289.588,94.499 288.847,90.789 280.820 C 89.959 279.026,89.924 278.340,89.731 260.419 C 89.487 237.773,90.287 239.973,81.755 238.477 C 66.021 235.717,54.069 226.943,48.690 214.203 C 38.403 189.834,54.252 166.358,82.636 163.921 C 90.097 163.280,89.488 165.250,89.731 140.977 C 89.957 118.377,89.862 119.024,93.403 115.825 C 97.519 112.106,105.811 112.181,109.807 115.974 C 112.811 118.823,112.639 117.036,112.861 147.757 C 113.092 179.618,112.387 175.232,118.473 182.646 C 125.991 191.804,126.153 191.866,131.104 187.503 C 146.387 174.033,183.054 134.531,192.991 120.829 C 198.948 112.616,204.821 110.267,211.531 113.416 M189.947 161.774 C 189.682 161.882,186.066 165.681,181.911 170.217 C 174.245 178.586,151.136 201.745,145.436 206.770 C 140.075 211.496,140.036 212.277,144.803 219.408 C 155.130 234.853,167.655 247.831,180.259 256.146 C 189.237 262.068,192.073 262.743,193.031 259.185 C 193.711 256.660,193.365 163.009,192.673 162.175 C 192.146 161.540,190.955 161.365,189.947 161.774 M81.157 187.845 C 73.129 189.457,68.723 194.322,69.495 200.723 C 71.180 214.672,89.737 220.030,103.520 210.547 C 107.071 208.104,107.046 206.222,103.401 201.462 C 95.009 190.501,88.321 186.407,81.157 187.845 M59.222 340.578 C 62.287 343.649,64.705 346.162,64.595 346.162 C 64.486 346.162,61.888 343.649,58.824 340.578 C 55.759 337.507,53.341 334.995,53.450 334.995 C 53.560 334.995,56.157 337.507,59.222 340.578 M345.364 335.100 C 345.364 335.158,342.717 337.805,339.482 340.982 L 333.599 346.760 339.377 340.877 C 344.744 335.413,345.364 334.814,345.364 335.100 " stroke="none" fill="#f3766f" fill-rule="evenodd"></path></g></svg>